<svg xmlns="http://www.w3.org/2000/svg" xmlns:xlink="http://www.w3.org/1999/xlink" zoomAndPan="magnify" preserveAspectRatio="xMidYMid meet" version="1.0" viewBox="24.82 53.13 206.62 72.77">
    <defs>
        <g/>
        <clipPath id="9d6a40c37a">
            <rect x="0" width="215" y="0" height="143"/>
        </clipPath>
    </defs>
    <g transform="matrix(1, 0, 0, 1, 23, 15)">
        <g clip-path="url(#9d6a40c37a)">
            <g fill="#fd703c" fill-opacity="1">
                <g transform="translate(0.51391, 110.89888)">
                    <g>
                        <path d="M 3.164062 0 L 20.183594 0 C 21.164062 0 22.039062 -0.871094 22.039062 -1.855469 L 22.039062 -8.511719 C 22.039062 -9.492188 22.910156 -10.363281 23.894531 -10.363281 L 30.65625 -10.363281 C 31.640625 -10.363281 32.511719 -11.238281 32.511719 -12.21875 L 32.511719 -18.875 C 32.511719 -19.855469 33.386719 -20.730469 34.367188 -20.730469 L 41.023438 -20.730469 C 42.003906 -20.730469 42.875 -21.601562 42.875 -22.582031 L 42.875 -50.078125 C 42.875 -51.058594 42.003906 -51.933594 41.023438 -51.933594 L 34.367188 -51.933594 C 33.386719 -51.933594 32.511719 -51.058594 32.511719 -50.078125 L 32.511719 -22.582031 C 32.511719 -21.601562 31.640625 -20.730469 30.65625 -20.730469 L 23.894531 -20.730469 C 22.910156 -20.730469 22.039062 -19.855469 22.039062 -18.875 L 22.039062 -12.21875 C 22.039062 -11.238281 21.164062 -10.363281 20.183594 -10.363281 L 13.527344 -10.363281 C 12.546875 -10.363281 11.671875 -11.238281 11.671875 -12.21875 L 11.671875 -50.078125 C 11.671875 -51.058594 10.800781 -51.933594 9.820312 -51.933594 L 3.164062 -51.933594 C 2.183594 -51.933594 1.308594 -51.058594 1.308594 -50.078125 L 1.308594 -1.855469 C 1.308594 -0.871094 2.183594 0 3.164062 0 Z M 3.164062 0 "/>
                    </g>
                </g>
            </g>
            <g fill="#fd703c" fill-opacity="1">
                <g transform="translate(48.079062, 110.89888)">
                    <g>
                        <path d="M 3.164062 0 L 9.820312 0 C 10.800781 0 11.671875 -0.871094 11.671875 -1.855469 L 11.671875 -50.078125 C 11.671875 -51.058594 10.800781 -51.933594 9.820312 -51.933594 L 3.164062 -51.933594 C 2.183594 -51.933594 1.308594 -51.058594 1.308594 -50.078125 L 1.308594 -1.855469 C 1.308594 -0.871094 2.183594 0 3.164062 0 Z M 3.164062 -62.296875 L 9.820312 -62.296875 C 10.800781 -62.296875 11.671875 -63.167969 11.671875 -64.152344 L 11.671875 -70.914062 C 11.671875 -71.898438 10.800781 -72.769531 9.820312 -72.769531 L 3.164062 -72.769531 C 2.183594 -72.769531 1.308594 -71.898438 1.308594 -70.914062 L 1.308594 -64.152344 C 1.308594 -63.167969 2.183594 -62.296875 3.164062 -62.296875 Z M 3.164062 -62.296875 "/>
                    </g>
                </g>
            </g>
            <g fill="#fd703c" fill-opacity="1">
                <g transform="translate(64.443629, 110.89888)">
                    <g>
                        <path d="M 3.164062 0 L 30.65625 0 C 31.640625 0 32.511719 -0.871094 32.511719 -1.855469 L 32.511719 -8.511719 C 32.511719 -9.492188 33.386719 -10.363281 34.367188 -10.363281 L 41.023438 -10.363281 C 42.003906 -10.363281 42.875 -11.238281 42.875 -12.21875 L 42.875 -39.710938 C 42.875 -40.695312 42.003906 -41.566406 41.023438 -41.566406 L 34.367188 -41.566406 C 33.386719 -41.566406 32.511719 -42.441406 32.511719 -43.421875 L 32.511719 -50.078125 C 32.511719 -51.058594 31.640625 -51.933594 30.65625 -51.933594 L 13.527344 -51.933594 C 12.546875 -51.933594 11.671875 -52.804688 11.671875 -53.785156 L 11.671875 -70.914062 C 11.671875 -71.898438 10.800781 -72.769531 9.820312 -72.769531 L 3.164062 -72.769531 C 2.183594 -72.769531 1.308594 -71.898438 1.308594 -70.914062 L 1.308594 -1.855469 C 1.308594 -0.871094 2.183594 0 3.164062 0 Z M 13.527344 -41.566406 L 30.65625 -41.566406 C 31.640625 -41.566406 32.511719 -40.695312 32.511719 -39.710938 L 32.511719 -12.21875 C 32.511719 -11.238281 31.640625 -10.363281 30.65625 -10.363281 L 13.527344 -10.363281 C 12.546875 -10.363281 11.671875 -11.238281 11.671875 -12.21875 L 11.671875 -39.710938 C 11.671875 -40.695312 12.546875 -41.566406 13.527344 -41.566406 Z M 13.527344 -41.566406 "/>
                    </g>
                </g>
            </g>
            <g fill="#fd703c" fill-opacity="1">
                <g transform="translate(112.008782, 110.89888)">
                    <g>
                        <path d="M 13.527344 0 L 41.023438 0 C 42.003906 0 42.875 -0.871094 42.875 -1.855469 L 42.875 -8.511719 C 42.875 -9.492188 42.003906 -10.363281 41.023438 -10.363281 L 13.527344 -10.363281 C 12.546875 -10.363281 11.671875 -11.238281 11.671875 -12.21875 L 11.671875 -18.875 C 11.671875 -19.855469 12.546875 -20.730469 13.527344 -20.730469 L 41.023438 -20.730469 C 42.003906 -20.730469 42.875 -21.601562 42.875 -22.582031 L 42.875 -39.710938 C 42.875 -40.695312 42.003906 -41.566406 41.023438 -41.566406 L 34.367188 -41.566406 C 33.386719 -41.566406 32.511719 -42.441406 32.511719 -43.421875 L 32.511719 -50.078125 C 32.511719 -51.058594 31.640625 -51.933594 30.65625 -51.933594 L 13.527344 -51.933594 C 12.546875 -51.933594 11.671875 -51.058594 11.671875 -50.078125 L 11.671875 -43.421875 C 11.671875 -42.441406 10.800781 -41.566406 9.820312 -41.566406 L 3.164062 -41.566406 C 2.183594 -41.566406 1.308594 -40.695312 1.308594 -39.710938 L 1.308594 -12.21875 C 1.308594 -11.238281 2.183594 -10.363281 3.164062 -10.363281 L 9.820312 -10.363281 C 10.800781 -10.363281 11.671875 -9.492188 11.671875 -8.511719 L 11.671875 -1.855469 C 11.671875 -0.871094 12.546875 0 13.527344 0 Z M 11.671875 -33.058594 L 11.671875 -39.710938 C 11.671875 -40.695312 12.546875 -41.566406 13.527344 -41.566406 L 30.65625 -41.566406 C 31.640625 -41.566406 32.511719 -40.695312 32.511719 -39.710938 L 32.511719 -33.058594 C 32.511719 -32.074219 31.640625 -31.203125 30.65625 -31.203125 L 13.527344 -31.203125 C 12.546875 -31.203125 11.671875 -32.074219 11.671875 -33.058594 Z M 11.671875 -33.058594 "/>
                    </g>
                </g>
            </g>
            <g fill="#fd703c" fill-opacity="1">
                <g transform="translate(159.573934, 110.89888)">
                    <g>
                        <path d="M 3.164062 0 L 9.820312 0 C 10.800781 0 11.671875 -0.871094 11.671875 -1.855469 L 11.671875 -39.710938 C 11.671875 -40.695312 12.546875 -41.566406 13.527344 -41.566406 L 30.65625 -41.566406 C 31.640625 -41.566406 32.511719 -42.441406 32.511719 -43.421875 L 32.511719 -50.078125 C 32.511719 -51.058594 31.640625 -51.933594 30.65625 -51.933594 L 13.527344 -51.933594 C 12.546875 -51.933594 11.671875 -51.058594 11.671875 -50.078125 L 11.671875 -43.421875 C 11.671875 -42.441406 10.800781 -41.566406 9.820312 -41.566406 L 3.164062 -41.566406 C 2.183594 -41.566406 1.308594 -40.695312 1.308594 -39.710938 L 1.308594 -1.855469 C 1.308594 -0.871094 2.183594 0 3.164062 0 Z M 3.164062 0 "/>
                    </g>
                </g>
            </g>
            <g fill="#fd703c" fill-opacity="1">
                <g transform="translate(196.775258, 110.89888)">
                    <g>
                        <path d="M 3.164062 0 L 9.820312 0 C 10.800781 0 11.671875 -0.871094 11.671875 -1.855469 L 11.671875 -8.511719 C 11.671875 -9.492188 10.800781 -10.363281 9.820312 -10.363281 L 3.164062 -10.363281 C 2.183594 -10.363281 1.308594 -9.492188 1.308594 -8.511719 L 1.308594 -1.855469 C 1.308594 -0.871094 2.183594 0 3.164062 0 Z M 3.164062 0 "/>
                    </g>
                </g>
            </g>
        </g>
    </g>
</svg>